<svg xmlns="http://www.w3.org/2000/svg" viewBox="0 0 600 600" width="600" height="600" role="img" aria-label="Cheesecake Slice">

    <defs>
      <radialGradient id="bg" cx="50%" cy="40%" r="80%">
        <stop offset="0%" stop-color="#FFD9C2"/>
        <stop offset="100%" stop-color="#E07856"/>
      </radialGradient>
      <filter id="soft-shadow" x="-30%" y="-30%" width="160%" height="160%">
        <feGaussianBlur stdDeviation="6"/>
      </filter>
    </defs>
    <rect width="600" height="600" fill="url(#bg)"/>
    <!-- Subtle noise texture via opacity dots -->
    <g fill="#FEF3C7" opacity="0.05">
      <circle cx="60" cy="80" r="2"/><circle cx="540" cy="120" r="3"/><circle cx="180" cy="540" r="2"/>
      <circle cx="450" cy="480" r="2"/><circle cx="120" cy="260" r="2"/><circle cx="500" cy="320" r="3"/>
    </g>
  

    <g filter="url(#soft-shadow)" opacity="0.18"><ellipse cx="300" cy="450" rx="140" ry="16" fill="#1C1917"/></g>
    <g transform="translate(300,300)">
      <path d="M -120 100 L 0 -130 L 120 100 Z" fill="#FEF3C7" stroke="#1C1917" stroke-width="3"/>
      <path d="M -120 100 L 120 100 L 110 90 L -110 90 Z" fill="#FFD9C2"/>
      <!-- Berry compote -->
      <circle cx="-30" cy="-60" r="14" fill="#E07856"/>
      <circle cx="20" cy="-40" r="12" fill="#E07856"/>
      <circle cx="-5" cy="-90" r="10" fill="#E07856"/>
    </g>
  <!-- Brand badge -->
  <g transform="translate(540,560)">
    <circle cx="0" cy="0" r="24" fill="#FEF3C7" opacity="0.95"/>
    <circle cx="0" cy="0" r="14" fill="#1C1917"/>
  </g>
</svg>
