<svg xmlns="http://www.w3.org/2000/svg" viewBox="0 0 600 600" width="600" height="600" role="img" aria-label="Egg & Cheese Sandwich">

    <defs>
      <radialGradient id="bg" cx="50%" cy="40%" r="80%">
        <stop offset="0%" stop-color="#A7E5DC"/>
        <stop offset="100%" stop-color="#0F766E"/>
      </radialGradient>
      <filter id="soft-shadow" x="-30%" y="-30%" width="160%" height="160%">
        <feGaussianBlur stdDeviation="6"/>
      </filter>
    </defs>
    <rect width="600" height="600" fill="url(#bg)"/>
    <!-- Subtle noise texture via opacity dots -->
    <g fill="#FEF3C7" opacity="0.05">
      <circle cx="60" cy="80" r="2"/><circle cx="540" cy="120" r="3"/><circle cx="180" cy="540" r="2"/>
      <circle cx="450" cy="480" r="2"/><circle cx="120" cy="260" r="2"/><circle cx="500" cy="320" r="3"/>
    </g>
  

    <g filter="url(#soft-shadow)" opacity="0.18"><ellipse cx="300" cy="450" rx="160" ry="16" fill="#1C1917"/></g>
    <g transform="translate(300,300)">
      <!-- Top bun -->
      <path d="M -130 -30 Q -130 -110 0 -110 Q 130 -110 130 -30 Z" fill="#A7E5DC" stroke="#1C1917" stroke-width="3"/>
      <!-- Egg -->
      <ellipse cx="0" cy="-10" rx="120" ry="22" fill="#FEF3C7"/>
      <circle cx="-20" cy="-10" r="14" fill="#D97706"/>
      <!-- Cheese -->
      <rect x="-130" y="10" width="260" height="14" fill="#F4A261" opacity="0.9"/>
      <!-- Bottom bun -->
      <path d="M -130 30 L 130 30 Q 130 80 0 80 Q -130 80 -130 30 Z" fill="#A7E5DC" stroke="#1C1917" stroke-width="3"/>
    </g>
  <!-- Brand badge -->
  <g transform="translate(540,560)">
    <circle cx="0" cy="0" r="24" fill="#FEF3C7" opacity="0.95"/>
    <circle cx="0" cy="0" r="14" fill="#1C1917"/>
  </g>
</svg>
