<svg xmlns="http://www.w3.org/2000/svg" viewBox="0 0 600 600" width="600" height="600" role="img" aria-label="Granola Bowl">

    <defs>
      <radialGradient id="bg" cx="50%" cy="40%" r="80%">
        <stop offset="0%" stop-color="#A7E5DC"/>
        <stop offset="100%" stop-color="#0F766E"/>
      </radialGradient>
      <filter id="soft-shadow" x="-30%" y="-30%" width="160%" height="160%">
        <feGaussianBlur stdDeviation="6"/>
      </filter>
    </defs>
    <rect width="600" height="600" fill="url(#bg)"/>
    <!-- Subtle noise texture via opacity dots -->
    <g fill="#FEF3C7" opacity="0.05">
      <circle cx="60" cy="80" r="2"/><circle cx="540" cy="120" r="3"/><circle cx="180" cy="540" r="2"/>
      <circle cx="450" cy="480" r="2"/><circle cx="120" cy="260" r="2"/><circle cx="500" cy="320" r="3"/>
    </g>
  

    <g filter="url(#soft-shadow)" opacity="0.18"><ellipse cx="300" cy="450" rx="170" ry="18" fill="#1C1917"/></g>
    <g transform="translate(300,300)">
      <!-- Bowl -->
      <path d="M -160 -20 Q -160 130 0 130 Q 160 130 160 -20 Z" fill="#1C1917"/>
      <ellipse cx="0" cy="-20" rx="160" ry="40" fill="#A7E5DC"/>
      <ellipse cx="0" cy="-25" rx="135" ry="30" fill="#0F766E" opacity="0.85"/>
      <!-- Fruit / granola pieces -->
      <g>
        <circle cx="-60" cy="-30" r="14" fill="#F4A261"/>
        <circle cx="40" cy="-35" r="12" fill="#A7E5DC"/>
        <circle cx="80" cy="-15" r="10" fill="#F4A261"/>
        <circle cx="-40" cy="-10" r="9" fill="#A7E5DC"/>
      </g>
    </g>
  <!-- Brand badge -->
  <g transform="translate(540,560)">
    <circle cx="0" cy="0" r="24" fill="#FEF3C7" opacity="0.95"/>
    <circle cx="0" cy="0" r="14" fill="#1C1917"/>
  </g>
</svg>
