<svg xmlns="http://www.w3.org/2000/svg" viewBox="0 0 600 600" width="600" height="600" role="img" aria-label="Vanilla Cold Brew">

    <defs>
      <radialGradient id="bg" cx="50%" cy="40%" r="80%">
        <stop offset="0%" stop-color="#F4A261"/>
        <stop offset="100%" stop-color="#C2410C"/>
      </radialGradient>
      <filter id="soft-shadow" x="-30%" y="-30%" width="160%" height="160%">
        <feGaussianBlur stdDeviation="6"/>
      </filter>
    </defs>
    <rect width="600" height="600" fill="url(#bg)"/>
    <!-- Subtle noise texture via opacity dots -->
    <g fill="#FEF3C7" opacity="0.05">
      <circle cx="60" cy="80" r="2"/><circle cx="540" cy="120" r="3"/><circle cx="180" cy="540" r="2"/>
      <circle cx="450" cy="480" r="2"/><circle cx="120" cy="260" r="2"/><circle cx="500" cy="320" r="3"/>
    </g>
  

    <g filter="url(#soft-shadow)" opacity="0.18"><ellipse cx="300" cy="450" rx="160" ry="20" fill="#1C1917"/></g>
    <g transform="translate(300,300)">
      <!-- Glass tumbler, vertical ellipse -->
      <path d="M -100 -130 L -100 130 Q -100 160 -70 160 L 70 160 Q 100 160 100 130 L 100 -130 Z" fill="#1C1917" opacity="0.9"/>
      <ellipse cx="0" cy="-130" rx="100" ry="22" fill="#F4A261"/>
      <!-- Ice cubes -->
      <g fill="#FEF3C7" opacity="0.85">
        <rect x="-60" y="-110" width="40" height="40" rx="6" transform="rotate(-15 -40 -90)"/>
        <rect x="20" y="-100" width="38" height="38" rx="6" transform="rotate(20 39 -81)"/>
        <rect x="-25" y="-50" width="42" height="42" rx="6" transform="rotate(-8 -4 -29)"/>
      </g>
      <!-- Straw -->
      <rect x="35" y="-160" width="14" height="200" fill="#C2410C" opacity="0.95" rx="6" transform="rotate(8 42 -60)"/>
    </g>
  <!-- Brand badge -->
  <g transform="translate(540,560)">
    <circle cx="0" cy="0" r="24" fill="#FEF3C7" opacity="0.95"/>
    <circle cx="0" cy="0" r="14" fill="#1C1917"/>
  </g>
</svg>
