<svg width="420" height="430" viewBox="0 0 420 430" fill="none" xmlns="http://www.w3.org/2000/svg">
  <defs>
    <linearGradient id="bg" x1="0" y1="0" x2="0" y2="430" gradientUnits="userSpaceOnUse">
      <stop offset="0%" stop-color="#EDD8A8"/>
      <stop offset="100%" stop-color="#D8BC80"/>
    </linearGradient>
    <linearGradient id="fade" x1="0" y1="260" x2="0" y2="430" gradientUnits="userSpaceOnUse">
      <stop offset="0%" stop-color="#C8A050" stop-opacity="0"/>
      <stop offset="100%" stop-color="#9A6C20" stop-opacity="0.30"/>
    </linearGradient>
  </defs>

  <rect width="420" height="430" rx="30" fill="url(#bg)"/>
  <rect width="420" height="430" rx="30" fill="url(#fade)"/>

  <!-- Coffee beans -->
  <g transform="translate(382,46) rotate(28)">
    <ellipse rx="20" ry="12.5" fill="#622E0C"/>
    <path d="M0,-10 Q9,0 0,10 Q-9,0 0,-10Z" fill="#3D1A06" opacity="0.45"/>
    <line x1="-18" y1="0" x2="18" y2="0" stroke="#281006" stroke-width="1.5" stroke-opacity="0.6"/>
  </g>
  <g transform="translate(260,18) rotate(-22)">
    <ellipse rx="15" ry="9" fill="#7A3E16"/>
    <path d="M0,-7.5 Q7,0 0,7.5 Q-7,0 0,-7.5Z" fill="#3D1A06" opacity="0.4"/>
    <line x1="-13" y1="0" x2="13" y2="0" stroke="#281006" stroke-width="1.3" stroke-opacity="0.55"/>
  </g>
  <g transform="translate(42,36) rotate(55)">
    <ellipse rx="10" ry="6" fill="#8A4C22"/>
    <path d="M0,-5 Q4.5,0 0,5 Q-4.5,0 0,-5Z" fill="#3D1A06" opacity="0.38"/>
    <line x1="-8.5" y1="0" x2="8.5" y2="0" stroke="#281006" stroke-width="1" stroke-opacity="0.5"/>
  </g>
  <g transform="translate(14,190) rotate(-38)">
    <ellipse rx="14" ry="8.5" fill="#7A3E16"/>
    <path d="M0,-7 Q6.5,0 0,7 Q-6.5,0 0,-7Z" fill="#3D1A06" opacity="0.4"/>
    <line x1="-12" y1="0" x2="12" y2="0" stroke="#281006" stroke-width="1.2" stroke-opacity="0.5"/>
  </g>
  <g transform="translate(412,250) rotate(18)">
    <ellipse rx="17" ry="10.5" fill="#622E0C"/>
    <path d="M0,-8.5 Q8,0 0,8.5 Q-8,0 0,-8.5Z" fill="#3D1A06" opacity="0.45"/>
    <line x1="-15" y1="0" x2="15" y2="0" stroke="#281006" stroke-width="1.4" stroke-opacity="0.55"/>
  </g>
  <g transform="translate(40,368) rotate(8)">
    <ellipse rx="22" ry="13.5" fill="#622E0C"/>
    <path d="M0,-11 Q10,0 0,11 Q-10,0 0,-11Z" fill="#3D1A06" opacity="0.5"/>
    <line x1="-20" y1="0" x2="20" y2="0" stroke="#281006" stroke-width="1.6" stroke-opacity="0.6"/>
  </g>
  <g transform="translate(378,390) rotate(-26)">
    <ellipse rx="16" ry="10" fill="#7A3E16"/>
    <path d="M0,-8 Q7,0 0,8 Q-7,0 0,-8Z" fill="#3D1A06" opacity="0.4"/>
    <line x1="-14" y1="0" x2="14" y2="0" stroke="#281006" stroke-width="1.3" stroke-opacity="0.5"/>
  </g>
  <g transform="translate(408,340) rotate(62)">
    <ellipse rx="9" ry="5.5" fill="#8A4C22"/>
    <path d="M0,-4.5 Q4,0 0,4.5 Q-4,0 0,-4.5Z" fill="#3D1A06" opacity="0.38"/>
    <line x1="-7.5" y1="0" x2="7.5" y2="0" stroke="#281006" stroke-width="1" stroke-opacity="0.45"/>
  </g>
  <g transform="translate(175,416) rotate(-50)">
    <ellipse rx="8" ry="5" fill="#8A4C22"/>
    <path d="M0,-4 Q3.5,0 0,4 Q-3.5,0 0,-4Z" fill="#3D1A06" opacity="0.35"/>
    <line x1="-6.5" y1="0" x2="6.5" y2="0" stroke="#281006" stroke-width="0.9" stroke-opacity="0.4"/>
  </g>

  <!-- Steam wisps — hot theme, above cup zone -->
  <path d="M148,62 Q142,48 148,34 Q154,22 148,10"
    stroke="#8A5220" stroke-width="2.5" stroke-opacity="0.28"
    stroke-linecap="round" fill="none"/>
  <path d="M210,56 Q204,42 210,28 Q216,16 210,6"
    stroke="#8A5220" stroke-width="2.5" stroke-opacity="0.22"
    stroke-linecap="round" fill="none"/>
  <path d="M272,62 Q266,48 272,34 Q278,22 272,10"
    stroke="#8A5220" stroke-width="2.5" stroke-opacity="0.28"
    stroke-linecap="round" fill="none"/>

  <!-- HERO TEXT "HOT" -->
  <text
    x="210" y="210"
    text-anchor="middle"
    font-family="Impact, 'Arial Black', 'Helvetica Neue', Arial, sans-serif"
    font-size="185" font-weight="900"
    fill="#2E1206" fill-opacity="0.86"
    letter-spacing="-4">HOT</text>

  <!-- HERO TEXT "LATTE" -->
  <text
    x="210" y="402"
    text-anchor="middle"
    font-family="Impact, 'Arial Black', 'Helvetica Neue', Arial, sans-serif"
    font-size="112" font-weight="900"
    fill="#2E1206" fill-opacity="0.86"
    letter-spacing="-2">LATTE</text>

  <!-- Brand name -->
  <text x="26" y="32"
    font-family="'Sora', 'Inter', 'Arial', sans-serif"
    font-size="11.5" font-weight="800"
    fill="#2E1206" fill-opacity="0.60"
    letter-spacing="2.8">CUP &amp; CO</text>

  <!-- Offer badge -->
  <circle cx="374" cy="60" r="40" fill="#2E1206" fill-opacity="0.85"/>
  <circle cx="374" cy="60" r="37.5" fill="none"
    stroke="#EDD8A8" stroke-width="1.5" stroke-opacity="0.45"/>
  <text x="374" y="53" text-anchor="middle"
    font-family="Impact, 'Arial Black', sans-serif"
    font-size="19" font-weight="900" fill="#F4D060">10%</text>
  <text x="374" y="72" text-anchor="middle"
    font-family="Impact, 'Arial Black', sans-serif"
    font-size="15" font-weight="900" fill="#F4D060">OFF</text>

  <!-- CTA line -->
  <text x="26" y="420"
    font-family="'Sora', 'Inter', Arial, sans-serif"
    font-size="9.5" font-weight="700"
    fill="#2E1206" fill-opacity="0.48"
    letter-spacing="2">ORDER NOW · THIS WEEKEND</text>

  <rect x="2" y="2" width="416" height="426" rx="29"
    stroke="#2E1206" stroke-width="1" stroke-opacity="0.10" fill="none"/>
</svg>
